<?xml version="1.0" standalone="no"?>
<!DOCTYPE svg PUBLIC "-//W3C//DTD SVG 20010904//EN"
 "http://www.w3.org/TR/2001/REC-SVG-20010904/DTD/svg10.dtd">
<svg version="1.0" xmlns="http://www.w3.org/2000/svg"
 width="512.000000pt" height="512.000000pt" viewBox="0 0 512.000000 512.000000"
 preserveAspectRatio="xMidYMid meet">

<g transform="translate(0.000000,512.000000) scale(0.100000,-0.100000)"
fill="#000000" stroke="none">
<path d="M2500 3683 c-30 -11 -55 -42 -181 -225 -164 -236 -182 -275 -183
-388 0 -76 4 -93 33 -156 141 -305 558 -307 704 -4 28 58 31 75 31 155 0 68
-5 103 -21 142 -29 73 -297 457 -329 472 -27 12 -31 12 -54 4z m134 -386 c95
-139 100 -149 104 -207 6 -78 -16 -137 -67 -183 -51 -46 -99 -61 -174 -54 -80
7 -132 43 -169 116 -35 68 -36 128 -5 192 32 66 189 290 201 286 5 -2 54 -69
110 -150z"/>
<path d="M3905 3545 c-33 -32 -34 -83 -2 -114 20 -18 42 -23 133 -31 139 -12
234 -39 360 -100 319 -155 522 -456 554 -822 7 -83 12 -104 31 -124 44 -47
119 -23 135 43 4 16 2 76 -4 135 -44 396 -283 738 -642 918 -138 69 -340 120
-477 120 -55 0 -67 -4 -88 -25z"/>
<path d="M3906 3187 c-34 -34 -35 -85 -3 -114 16 -16 45 -24 115 -32 166 -20
275 -72 388 -185 113 -113 166 -227 184 -395 11 -99 32 -131 87 -131 52 0 83
37 83 97 -1 288 -185 574 -454 703 -102 49 -177 69 -288 77 -83 6 -87 5 -112
-20z"/>
<path d="M3906 2829 c-20 -16 -26 -29 -26 -58 0 -52 29 -75 114 -90 135 -24
215 -106 237 -245 12 -74 38 -106 86 -106 48 0 83 37 83 87 0 101 -54 226
-129 301 -111 111 -294 167 -365 111z"/>
<path d="M1021 2429 c-45 -18 -50 -36 -51 -171 l0 -128 -87 0 c-55 -1 -97 -6
-113 -14 -17 -10 -65 -91 -155 -262 l-130 -249 -218 -5 -219 -5 -24 -28 c-30
-36 -30 -68 0 -104 l24 -28 2454 -3 c1349 -1 2463 0 2475 3 72 17 83 103 20
157 -1 1 -100 4 -221 7 l-218 6 -129 245 c-70 135 -138 253 -150 263 -17 13
-40 17 -110 17 l-89 0 0 103 c0 56 -5 119 -11 139 -20 73 99 68 -1546 67 -923
0 -1487 -4 -1502 -10z m2889 -229 l0 -70 -1390 0 -1390 0 0 70 0 70 1390 0
1390 0 0 -70z m365 -412 c50 -94 92 -175 93 -180 2 -4 -829 -8 -1848 -8
l-1851 0 87 168 c48 92 91 173 97 180 7 9 353 12 1671 12 l1661 0 90 -172z"/>
</g>
</svg>
