<?xml version="1.0" encoding="UTF-8"?>
<svg id="Layer_1" xmlns="http://www.w3.org/2000/svg" xmlns:xlink="http://www.w3.org/1999/xlink" version="1.1" viewBox="0 0 217.22 222.1">
  <!-- Generator: Adobe Illustrator 29.1.0, SVG Export Plug-In . SVG Version: 2.1.0 Build 142)  -->
  <defs>
    <style>
      .st0 {
        fill: none;
      }

      .st1 {
        fill: #fff;
      }

      .st2 {
        fill: #0480c4;
      }

      .st3 {
        clip-path: url(#clippath);
      }
    </style>
    <clipPath id="clippath">
      <rect class="st0" x="-.02" y="-.05" width="217.27" height="222.21"/>
    </clipPath>
  </defs>
  <g class="st3">
    <path class="st2" d="M217.25,204.25c0,9.89-8.12,17.9-18.14,17.9H18.11C8.09,222.15-.02,214.15-.02,204.25V17.85C-.02,7.97,8.09-.05,18.11-.05h181c10.01,0,18.14,8.02,18.14,17.9v186.41Z"/>
    <path class="st1" d="M167.88,187.58H50.41c-6.99,0-14.06-4.71-14.06-13.71V46.69c0-8.96,5.39-14.53,14.06-14.53s14.06,5.56,14.06,14.53v115.42h103.41c8.8,0,14.06,4.76,14.06,12.73s-5.38,12.73-14.06,12.73"/>
    <path class="st1" d="M165.69,148.45c-6.88,0-12-5.64-16.12-10.17l-1-1.1-37.08-39.14v35.88c0,8.96-5.39,14.53-14.06,14.53s-14.06-5.57-14.06-14.53V46.69c0-8.96,5.39-14.53,14.06-14.53s14.06,5.57,14.06,14.53v29.7l36.58-37.38c5.24-5.76,8.64-6.85,13.09-6.85,6.37,0,14.06,5.9,14.06,13.22,0,4.36-2.99,8.36-5.5,10.95l-32.03,29.9,35.05,35.58.24.25c4.16,4.38,7.44,7.83,7.44,12.83,0,9.31-7.64,13.55-14.73,13.55"/>
  </g>
</svg>