<svg height="769" viewBox="0 0 769 769" width="769" xmlns="http://www.w3.org/2000/svg"><g fill="#000"><path d="m174.32324 102.882157c-31.204616 0-50.604025 19.926135-50.604025 51.979667v454.974136c0 32.196628 25.445979 49.046197 50.604025 49.046197h422.79195v-.035774c31.240607 0 50.604025-17.028439 50.604025-45.540343 0-28.511903-18.931519-45.540342-50.604025-45.540342h-372.187925v-412.903874c0-32.089306-19.399409-51.979667-50.604025-51.979667z"/><path d="m572.928914 102.882157c-16.01621 0-28.253315 3.899369-47.112851 24.505211l-131.656845 133.72333v-106.248874c0-32.053532-19.399409-51.979667-50.604025-51.979667s-50.604025 19.926135-50.604025 51.979667v312.056879c0 32.053532 19.399409 51.979668 50.604025 51.979668s50.604025-19.926136 50.604025-51.979668v-128.357226l133.456418 140.01956 3.599149 3.935144c14.828491 16.205636 33.25613 36.38219 58.01827 36.38219v-.035774c25.517961 0 53.015455-15.168189 53.015455-48.473813 0-17.887016-11.805206-30.229057-26.777663-45.898083l-.863796-.89435-126.150148-127.284006 115.28072-106.964354c9.033862-9.265475 19.795316-23.575087 19.795316-39.172565 0-26.186591-27.67745-47.293269-50.604025-47.293269z"/></g></svg>