<?xml version="1.0" encoding="UTF-8"?>
<!DOCTYPE svg PUBLIC "-//W3C//DTD SVG 1.1//EN" "http://www.w3.org/Graphics/SVG/1.1/DTD/svg11.dtd">
<!-- Creator: CorelDRAW X6 -->
<svg xmlns="http://www.w3.org/2000/svg" xml:space="preserve" width="2.68055in" height="2.73611in" version="1.1" style="shape-rendering:geometricPrecision; text-rendering:geometricPrecision; image-rendering:optimizeQuality; fill-rule:evenodd; clip-rule:evenodd"
viewBox="0 0 2681 2736"
 xmlns:xlink="http://www.w3.org/1999/xlink">
 <defs>
  <style type="text/css">
   <![CDATA[
    .fil0 {fill:#008DD0;fill-rule:nonzero}
    .fil1 {fill:#FEFEFE;fill-rule:nonzero}
   ]]>
  </style>
 </defs>
 <g id="Layer_x0020_1">
  <metadata id="CorelCorpID_0Corel-Layer"/>
  <path class="fil0" d="M2687 2518c-2,121 -102,218 -224,218l-2238 0c-124,0 -224,-99 -224,-221l0 -2305c0,-122 100,-221 223,-221l2241 0c122,1 221,98 223,218l0 2312z"/>
  <path class="fil1" d="M2076 2308l-1453 0c-86,0 -174,-58 -174,-170l0 -1573c0,-111 67,-180 174,-180 107,0 174,69 174,180l0 1427 1279 0c109,0 174,59 174,157 0,97 -67,157 -174,157l0 0z"/>
  <path class="fil1" d="M2049 1825c-85,0 -148,-70 -199,-126l-12 -14 -459 -484 0 444c0,111 -67,180 -174,180 -107,0 -174,-69 -174,-180l0 -1079c0,-111 67,-180 174,-180 107,0 174,69 174,180l0 367 452 -462c65,-71 107,-85 162,-85 79,0 174,73 174,164 0,54 -37,103 -68,135l-396 370 433 440 3 3c51,54 92,97 92,159 0,115 -94,168 -182,168l0 0z"/>
 </g>
</svg>
