<svg height="960" viewBox="0 0 960 960" width="960" xmlns="http://www.w3.org/2000/svg"><path d="m870.602338 0c43.261334 0 78.397662 34.6483057 78.397662 77.3322533v805.2922907c0 42.72715-35.09311 77.332254-78.397662 77.332254h-782.2478942c-43.304552 0-78.3544438-34.561901-78.3544438-77.332254v-805.2922907c0-42.6839476 35.0498918-77.3322533 78.3544438-77.3322533zm-642.65338 139.154854c-37.470107 0-60.764671 24.063723-60.764671 62.773052v549.44782c0 38.882138 30.555208 59.230457 60.764671 59.230457h507.683205v-.043202c37.513324 0 60.76467-20.564331 60.76467-54.996625s-22.732728-54.996625-60.76467-54.996625h-446.918535v-498.641825c0-38.752531-23.294564-62.773052-60.76467-62.773052zm478.640631 0c-19.232061 0-33.926221 4.709059-56.572513 29.593627l-158.091868 161.490482v-128.311057c0-38.709329-23.294564-62.773052-60.76467-62.773052-37.470107 0-60.764671 24.063723-60.764671 62.773052v376.854327c0 38.709329 23.294564 62.773053 60.764671 62.773053 37.470106 0 60.76467-24.063724 60.76467-62.773053v-155.010126l160.252773 169.094101 4.321812 4.752261c17.805864 19.570676 39.933539 43.936817 69.667602 43.936817v-.043203c30.641644 0 63.660285-18.317807 63.660285-58.539219 0-21.601189-14.175542-36.506008-32.154278-55.428649l-1.037235-1.080059-151.479496-153.714055 138.427625-129.175104c10.847747-11.189416 23.769964-28.470366 23.769964-47.306602 0-31.62414-33.234731-57.113541-60.764671-57.113541z" fill="#0480c4"/></svg>