<svg height="769" viewBox="0 0 769 769" width="769" xmlns="http://www.w3.org/2000/svg"><path d="m660.661729 5.4826967c52.552555 0 95.43775 42.2473661 95.43775 94.6183623v568.763275c0 52.401415-42.854537 94.618363-95.43775 94.618363h-553.155061c-52.5913856 0-95.4071888-42.194647-95.4071888-94.618363v-568.763275c0-52.3767528 42.8303838-94.6183623 95.4071888-94.6183623zm0 40h-553.155061c-30.6221748 0-55.4071888 24.4714672-55.4071888 54.6183623v568.763275c0 30.207922 24.785014 54.618363 55.4071888 54.618363h553.155061c30.622175 0 55.43775-24.440955 55.43775-54.618363v-568.763275c0-30.1468951-24.846136-54.6183623-55.43775-54.6183623zm-454.442859 98.2825383c26.496433 0 42.96884 16.965257 42.96884 44.335463v352.181638h316.03185c26.893727 0 42.96884 14.524213 42.96884 38.843115s-16.441846 38.843114-42.96884 38.843114v.030513h-359.00069c-21.362176 0-42.968841-14.371647-42.968841-41.833393v-388.064987c0-27.339694 16.472408-44.335463 42.968841-44.335463zm338.463663 0c19.467391 0 42.96884 18.0027 42.96884 40.338254 0 13.30369-9.137755 25.50891-16.808579 33.411791l-97.887053 91.234023 107.116491 108.565437.733465.762826c12.713398 13.364717 22.737424 23.891719 22.737424 39.148245 0 28.407651-23.348645 41.345184-45.016432 41.345184v.030514c-21.026004 0-36.673263-17.209362-49.264417-31.031774l-3.056106-3.356435-113.320384-119.428083v109.480828c0 27.339694-16.472408 44.335464-42.96884 44.335464-26.496434 0-42.968841-16.99577-42.968841-44.335464v-266.165347c0-27.339694 16.472407-44.335463 42.968841-44.335463 26.496432 0 42.96884 16.995769 42.96884 44.335463v90.623763l111.792332-114.057786c16.013992-17.575517 26.40475-20.90144 40.004419-20.90144z"/></svg>