<svg width="24" height="24" viewBox="0 0 24 24" fill="none" xmlns="http://www.w3.org/2000/svg">
<path d="M6.68263 2.08714L6.68293 2.08682C7.02246 1.71231 7.50155 1.5 8 1.5H11.0586H12.9414H15.998C16.4982 1.5 16.9754 1.71214 17.3151 2.08682L17.3154 2.08714C18.2327 3.09711 18.8827 4.32957 19.2071 5.66589C19.2072 5.66635 19.2073 5.66682 19.2075 5.66728L19.2712 5.93713L19.2714 5.93806C19.4226 6.57245 19.5 7.22328 19.5 7.87549V10.2036V13.7925V16.1225C19.5 16.7747 19.4226 17.4256 19.2714 18.06L19.2712 18.0609L19.2071 18.332C19.2071 18.3323 19.207 18.3326 19.2069 18.3328C18.8866 19.668 18.235 20.9006 17.3171 21.9132C16.9775 22.2877 16.4984 22.5 16 22.5H12.9414H11.0586H8C7.49983 22.5 7.02262 22.2879 6.68293 21.9132L6.68261 21.9128C5.76307 20.9005 5.11344 19.6701 4.79305 18.3328C4.793 18.3326 4.79294 18.3324 4.79289 18.3322L4.72878 18.0609L4.72856 18.06C4.57736 17.4256 4.5 16.7747 4.5 16.1225V13.7945V10.2036V7.87549C4.5 7.2234 4.57733 6.57501 4.7302 5.94137L4.7302 5.94138L4.73074 5.93911L4.79484 5.66784C4.7949 5.6676 4.79496 5.66736 4.79502 5.66712C5.11548 4.32958 5.76524 3.09727 6.68263 2.08714Z" stroke="black"/>
<circle cx="12" cy="8" r="3.5" stroke="black"/>
<path d="M12 5V11" stroke="black"/>
</svg>
