<?xml version="1.0" standalone="no"?>
<!DOCTYPE svg PUBLIC "-//W3C//DTD SVG 20010904//EN"
 "http://www.w3.org/TR/2001/REC-SVG-20010904/DTD/svg10.dtd">
<svg version="1.0" xmlns="http://www.w3.org/2000/svg"
 width="412.000000pt" height="438.000000pt" viewBox="0 0 412.000000 438.000000"
 preserveAspectRatio="xMidYMid meet">
<metadata>
Created by potrace 1.16, written by Peter Selinger 2001-2019
</metadata>
<g transform="translate(0.000000,438.000000) scale(0.100000,-0.100000)"
fill="#000000" stroke="none">
<path d="M164 4206 c-2 -6 -3 -441 -2 -966 l3 -954 25 -7 25 -6 -25 -4 c-23
-4 -25 -9 -28 -62 -3 -57 10 -93 29 -81 5 3 9 1 9 -4 0 -5 -9 -12 -20 -15 -20
-5 -20 -14 -20 -966 l0 -961 1885 0 1885 0 0 961 c0 952 0 961 -20 966 -18 5
-30 25 -12 22 28 -5 32 4 32 67 0 59 -2 66 -22 72 l-22 5 22 8 22 8 -2 963 -3
963 -1878 1 c-1370 1 -1880 -2 -1883 -10z m3736 -960 l0 -941 -1855 0 -1855 0
0 941 0 941 1855 0 1855 0 0 -941z m0 -2098 l0 -943 -1855 0 -1855 0 0 943 0
942 1855 0 1855 0 0 -942z"/>
<path d="M1261 3628 c-178 -5 -290 -13 -298 -20 -10 -8 -13 -113 -13 -529 0
-307 4 -520 9 -524 62 -38 2110 -38 2172 0 15 10 12 1040 -3 1053 -33 27
-1231 40 -1867 20z m1474 -18 c83 -3 -228 -6 -690 -6 -462 0 -779 3 -705 6
192 8 1216 9 1395 0z m-1717 -527 c1 -304 -1 -503 -7 -503 -5 0 -16 -3 -25 -6
-14 -6 -16 43 -16 506 l0 511 23 -3 22 -3 3 -502z m2102 -4 c0 -462 -2 -511
-16 -505 -9 3 -20 6 -25 6 -10 0 -13 993 -2 1003 3 4 15 7 25 7 17 0 18 -22
18 -511z m-70 1 l0 -500 -1002 2 -1003 3 -3 498 -2 497 1005 0 1005 0 0 -500z
m-445 -530 c-256 -9 -851 -9 -1115 0 -124 4 95 6 555 6 458 0 681 -2 560 -6z"/>
<path d="M1254 3406 c-120 -77 -190 -128 -192 -140 -4 -19 -3 -19 21 -3 13 9
28 13 31 9 4 -3 6 -85 6 -182 l-2 -175 326 -3 326 -2 0 186 0 186 25 -16 c30
-20 35 -20 35 -1 0 8 -31 35 -70 60 l-70 45 0 70 c0 56 -3 70 -15 70 -12 0
-15 -15 -15 -78 l0 -77 40 -25 40 -25 0 -187 0 -188 -300 0 -300 0 0 184 0
184 151 98 c120 77 155 95 168 87 9 -5 42 -27 74 -47 l57 -37 0 57 c0 40 -3
55 -12 52 -7 -3 -14 -14 -16 -26 -2 -12 -6 -22 -8 -22 -3 0 -29 15 -58 34
l-53 34 -189 -122z"/>
<path d="M1850 3071 c0 -301 3 -461 10 -461 7 0 10 158 10 454 0 293 -4 457
-10 461 -7 4 -10 -150 -10 -454z"/>
<path d="M1422 3398 c-7 -7 -12 -39 -12 -75 0 -42 -6 -72 -16 -88 -21 -32 -11
-72 21 -87 56 -25 112 29 80 78 -10 15 -15 47 -15 93 0 59 -3 72 -19 81 -24
13 -24 13 -39 -2z"/>
<path d="M1930 3352 c0 -5 8 -16 18 -25 22 -20 121 -23 142 -4 12 10 12 9 3
-3 -6 -8 -14 -45 -18 -82 -6 -61 -9 -68 -35 -80 -22 -9 -26 -15 -18 -25 14
-18 57 -16 64 2 4 8 12 15 19 15 24 0 34 173 11 196 -16 16 -186 21 -186 6z"/>
<path d="M2189 3343 c-17 -20 -26 -193 -11 -193 28 0 42 33 42 96 l0 64 66 0
65 0 -2 -69 c-2 -71 3 -91 25 -91 25 0 37 175 14 198 -7 7 -45 12 -99 12 -68
0 -89 -3 -100 -17z"/>
<path d="M1923 3149 c-30 -19 -31 -23 -38 -109 -9 -116 -6 -120 109 -120 47 0
87 4 90 9 3 4 -4 17 -15 27 -17 15 -24 16 -52 6 -20 -8 -35 -8 -41 -2 -6 6
-18 10 -28 10 -20 0 -22 14 -12 98 4 29 12 52 18 52 7 0 20 6 30 13 17 12 16
14 -7 24 -19 9 -30 7 -54 -8z"/>
<path d="M2358 3122 c-9 -9 -19 -47 -23 -84 -5 -55 -10 -68 -24 -68 -9 0 -22
-5 -29 -12 -9 -9 -15 -9 -24 0 -7 7 -22 12 -35 12 -23 0 -23 2 -17 68 5 56 4
70 -10 81 -25 21 -33 5 -39 -85 -8 -107 -1 -114 110 -114 106 0 114 9 119 124
4 88 -3 107 -28 78z"/>
<path d="M1088 2856 c-15 -11 -18 -30 -18 -130 l0 -116 44 0 45 0 0 119 c0
103 -2 120 -17 125 -9 3 -21 8 -27 11 -5 2 -18 -2 -27 -9z"/>
<path d="M1179 2865 c-3 -23 -1 -86 4 -91 3 -3 3 -16 -1 -28 -4 -11 -7 -46 -7
-76 0 -48 3 -55 21 -58 17 -2 24 6 37 40 10 24 17 49 17 55 0 6 4 13 10 15 5
2 11 12 13 23 2 11 13 39 25 62 12 23 22 47 22 53 0 10 -139 15 -141 5z"/>
<path d="M2786 2854 c-9 -23 -7 -217 2 -232 7 -9 39 -12 128 -10 l119 3 0 125
0 125 -121 3 c-104 2 -123 0 -128 -14z"/>
</g>
</svg>
