<?xml version="1.0" standalone="no"?>
<!DOCTYPE svg PUBLIC "-//W3C//DTD SVG 20010904//EN"
 "http://www.w3.org/TR/2001/REC-SVG-20010904/DTD/svg10.dtd">
<svg version="1.0" xmlns="http://www.w3.org/2000/svg"
 width="512.000000pt" height="512.000000pt" viewBox="0 0 512.000000 512.000000"
 preserveAspectRatio="xMidYMid meet">

<g transform="translate(0.000000,512.000000) scale(0.100000,-0.100000)"
fill="#000000" stroke="none">
<path d="M2028 3861 c-22 -17 -211 -324 -231 -375 -4 -10 -2 -35 4 -54 15 -46
56 -62 159 -62 l80 0 0 -79 0 -79 -167 -4 c-185 -5 -212 -12 -278 -69 -62 -55
-85 -116 -85 -231 l0 -98 -54 0 -53 0 -7 73 c-12 119 -62 204 -148 248 -139
72 -295 26 -380 -111 -19 -31 -38 -117 -38 -170 l0 -40 -369 0 c-243 0 -379
-4 -400 -11 -62 -22 -61 -15 -61 -583 l0 -514 26 -31 26 -31 387 0 388 0 6
-76 c15 -169 108 -271 256 -282 108 -7 198 34 256 118 29 42 54 135 55 203 l0
37 55 0 55 0 0 -92 c0 -51 5 -110 10 -130 16 -57 69 -119 129 -150 l53 -28
857 0 c807 0 858 1 896 19 60 27 101 66 129 123 23 46 26 64 26 155 l0 103 53
0 53 0 11 -91 c10 -73 18 -100 44 -140 58 -91 147 -135 260 -127 149 11 244
115 256 284 l6 74 386 0 c288 1 390 4 402 13 38 29 39 43 39 567 0 563 1 557
-61 579 -21 7 -157 11 -400 11 l-369 0 0 40 c0 53 -19 139 -38 170 -85 137
-241 183 -380 111 -86 -44 -135 -128 -147 -248 l-7 -73 -54 0 -54 0 0 98 c0
115 -23 176 -85 231 -66 57 -93 64 -277 69 l-168 4 0 79 0 79 285 0 c223 0
293 3 318 14 18 8 93 75 167 150 l135 136 418 0 c428 0 445 1 474 39 21 27 15
77 -11 108 l-24 28 -434 3 c-238 2 -449 0 -468 -3 -28 -5 -65 -36 -181 -151
l-145 -145 -164 3 -165 3 -82 140 c-45 77 -94 150 -108 163 l-26 22 -508 0
c-488 0 -509 -1 -533 -19z m1006 -228 l45 -78 -259 -3 c-143 -1 -377 -1 -520
0 l-259 3 45 78 46 77 428 0 428 0 46 -77z m-124 -343 l0 -80 -350 0 -350 0 0
80 0 80 350 0 350 0 0 -80z m502 -288 l23 -23 3 -732 c2 -518 0 -743 -8 -770
-20 -70 15 -67 -870 -67 -885 0 -850 -3 -870 67 -8 27 -10 252 -8 769 3 785 1
753 53 775 11 4 388 7 837 6 l817 -2 23 -23z m-2251 -28 c60 -30 59 -19 59
-752 0 -451 -3 -679 -11 -700 -19 -55 -93 -82 -148 -53 -52 29 -52 15 -49 765
3 678 3 694 23 716 37 41 78 49 126 24z m2918 -19 l26 -25 3 -695 c3 -771 5
-742 -62 -770 -54 -23 -117 4 -135 57 -16 44 -15 1353 0 1397 25 70 115 90
168 36z m-3249 -735 l0 -410 -325 0 -325 0 0 410 0 410 325 0 325 0 0 -410z
m678 3 l-3 -408 -52 -3 -53 -3 0 410 0 411 55 0 55 0 -2 -407z m2212 -4 l0
-410 -52 3 -53 3 -3 408 -2 407 55 0 55 0 0 -411z m1220 1 l0 -410 -325 0
-325 0 0 410 0 410 325 0 325 0 0 -410z"/>
<path d="M2628 2631 c-32 -25 -44 -71 -28 -103 7 -13 55 -67 108 -120 l97 -98
-363 0 c-241 0 -370 -4 -384 -11 -11 -6 -26 -26 -34 -45 -20 -47 0 -97 46
-113 22 -7 148 -11 383 -11 l351 0 -107 -109 c-71 -71 -107 -115 -107 -130 0
-63 63 -111 118 -90 37 14 371 346 388 387 12 27 12 37 0 65 -8 17 -94 112
-193 210 -197 196 -221 210 -275 168z"/>
</g>
</svg>
